<svg width="20" height="20" viewBox="0 0 20 20" fill="none" xmlns="http://www.w3.org/2000/svg">
<rect width="20" height="20" fill="#E5E5E5"/>
<g clip-path="url(#clip0_0_1)">
<rect width="375" height="818" transform="translate(-240 -749)" fill="#FCFCFC"/>
<g filter="url(#filter0_d_0_1)">
<rect x="-240" y="-152" width="376" height="399" rx="10" fill="#FCFEFF"/>
</g>
<path d="M-8.81762 23V18.888H-10.0656V17.864H-8.81762V16.552H-10.0656V15.528H-8.81762V11.576H-7.15362L-5.63362 15.528H-3.74562V11.576H-2.48162V15.528H-1.23362V16.552H-2.48162V17.864H-1.23362V18.888H-2.48162V23H-4.16162L-5.68162 18.888H-7.56962V23H-8.81762ZM-7.60162 15.528H-6.92962L-7.60162 13.544H-7.66562L-7.60162 15.528ZM-7.56962 17.864H-6.06562L-6.54562 16.552H-7.60162L-7.56962 17.864ZM-4.78562 17.864H-3.71362L-3.74562 16.552H-5.26562L-4.78562 17.864ZM-3.74562 20.744H-3.68162L-3.72962 18.888H-4.40162L-3.74562 20.744ZM6.67463 12.632V14.312C6.41863 14.5253 6.16796 14.7493 5.92263 14.984C5.68796 15.2187 5.36263 15.608 4.94663 16.152C4.53063 16.6853 4.16796 17.2507 3.85863 17.848C3.54929 18.4347 3.25063 19.192 2.96263 20.12C2.68529 21.0373 2.50396 21.9973 2.41863 23H0.434626C0.519959 21.9227 0.717293 20.888 1.02663 19.896C1.33596 18.8933 1.68263 18.072 2.06663 17.432C2.45063 16.7813 2.82396 16.2107 3.18663 15.72C3.55996 15.2293 3.87463 14.872 4.13063 14.648L4.49863 14.312H-1.06937V12.632H6.67463ZM5.795 21.832C5.795 21.4907 5.923 21.2027 6.179 20.968C6.435 20.7333 6.74967 20.616 7.123 20.616C7.54967 20.616 7.89633 20.7707 8.163 21.08C8.44033 21.3893 8.579 21.8 8.579 22.312C8.579 23.3253 8.307 24.1093 7.763 24.664C7.22967 25.2293 6.63233 25.5547 5.971 25.64V24.696C6.34433 24.6107 6.66967 24.4027 6.947 24.072C7.235 23.7413 7.38433 23.3733 7.395 22.968C7.28833 23.0213 7.16033 23.048 7.011 23.048C6.659 23.048 6.36567 22.936 6.131 22.712C5.907 22.488 5.795 22.1947 5.795 21.832ZM11.8459 17.816C11.8459 19.16 12.0912 20.1467 12.5819 20.776C12.9659 21.288 13.4992 21.544 14.1819 21.544C14.8432 21.544 15.3765 21.288 15.7819 20.776C16.2619 20.1573 16.5019 19.1707 16.5019 17.816C16.5019 16.4613 16.2619 15.4747 15.7819 14.856C15.3765 14.344 14.8432 14.088 14.1819 14.088C13.4992 14.088 12.9659 14.344 12.5819 14.856C12.0912 15.464 11.8459 16.4507 11.8459 17.816ZM10.8699 21.544C10.2512 20.616 9.94188 19.3733 9.94188 17.816C9.94188 16.2587 10.2512 15.016 10.8699 14.088C11.6272 12.9573 12.7312 12.392 14.1819 12.392C15.6219 12.392 16.7205 12.9573 17.4779 14.088C18.0965 15.016 18.4059 16.2587 18.4059 17.816C18.4059 19.3733 18.0965 20.616 17.4779 21.544C16.7205 22.6747 15.6219 23.24 14.1819 23.24C12.7312 23.24 11.6272 22.6747 10.8699 21.544ZM21.6253 17.816C21.6253 19.16 21.8706 20.1467 22.3613 20.776C22.7453 21.288 23.2786 21.544 23.9613 21.544C24.6226 21.544 25.1559 21.288 25.5613 20.776C26.0413 20.1573 26.2813 19.1707 26.2813 17.816C26.2813 16.4613 26.0413 15.4747 25.5613 14.856C25.1559 14.344 24.6226 14.088 23.9613 14.088C23.2786 14.088 22.7453 14.344 22.3613 14.856C21.8706 15.464 21.6253 16.4507 21.6253 17.816ZM20.6493 21.544C20.0306 20.616 19.7213 19.3733 19.7213 17.816C19.7213 16.2587 20.0306 15.016 20.6493 14.088C21.4066 12.9573 22.5106 12.392 23.9613 12.392C25.4013 12.392 26.4999 12.9573 27.2573 14.088C27.8759 15.016 28.1853 16.2587 28.1853 17.816C28.1853 19.3733 27.8759 20.616 27.2573 21.544C26.4999 22.6747 25.4013 23.24 23.9613 23.24C22.5106 23.24 21.4066 22.6747 20.6493 21.544ZM31.4046 17.816C31.4046 19.16 31.65 20.1467 32.1406 20.776C32.5246 21.288 33.058 21.544 33.7406 21.544C34.402 21.544 34.9353 21.288 35.3406 20.776C35.8206 20.1573 36.0606 19.1707 36.0606 17.816C36.0606 16.4613 35.8206 15.4747 35.3406 14.856C34.9353 14.344 34.402 14.088 33.7406 14.088C33.058 14.088 32.5246 14.344 32.1406 14.856C31.65 15.464 31.4046 16.4507 31.4046 17.816ZM30.4286 21.544C29.81 20.616 29.5006 19.3733 29.5006 17.816C29.5006 16.2587 29.81 15.016 30.4286 14.088C31.186 12.9573 32.29 12.392 33.7406 12.392C35.1806 12.392 36.2793 12.9573 37.0366 14.088C37.6553 15.016 37.9646 16.2587 37.9646 17.816C37.9646 19.3733 37.6553 20.616 37.0366 21.544C36.2793 22.6747 35.1806 23.24 33.7406 23.24C32.29 23.24 31.186 22.6747 30.4286 21.544ZM45.3716 11.576L39.7876 23.08H38.0756L43.6596 11.576H45.3716Z" fill="#001233"/>
<path d="M46.7005 23V18.888H45.4525V17.864H46.7005V16.552H45.4525V15.528H46.7005V11.576H48.3645L49.8845 15.528H51.7725V11.576H53.0365V15.528H54.2845V16.552H53.0365V17.864H54.2845V18.888H53.0365V23H51.3565L49.8365 18.888H47.9485V23H46.7005ZM47.9165 15.528H48.5885L47.9165 13.544H47.8525L47.9165 15.528ZM47.9485 17.864H49.4525L48.9725 16.552H47.9165L47.9485 17.864ZM50.7325 17.864H51.8045L51.7725 16.552H50.2525L50.7325 17.864ZM51.7725 20.744H51.8365L51.7885 18.888H51.1165L51.7725 20.744ZM56.8968 16.52L55.0408 16.392C55.0088 16.104 54.9928 15.9067 54.9928 15.8C54.9928 14.8613 55.3234 14.0613 55.9848 13.4C56.6568 12.728 57.5581 12.392 58.6888 12.392C59.7981 12.392 60.6834 12.7067 61.3448 13.336C62.0061 13.9653 62.3368 14.7387 62.3368 15.656C62.3368 16.9787 61.6701 18.0507 60.3368 18.872L58.3208 20.12C57.7341 20.472 57.3821 20.8667 57.2648 21.304H62.4008V23H54.8968C54.9181 22.072 55.1154 21.2613 55.4888 20.568C55.8621 19.8747 56.4861 19.256 57.3608 18.712L59.0728 17.64C59.9581 17.0853 60.4008 16.4347 60.4008 15.688C60.4008 15.2293 60.2461 14.8453 59.9368 14.536C59.6381 14.2267 59.2114 14.072 58.6568 14.072C58.0701 14.072 57.6221 14.2533 57.3128 14.616C57.0034 14.968 56.8488 15.4267 56.8488 15.992L56.8968 16.52ZM65.5065 17.816C65.5065 19.16 65.7518 20.1467 66.2425 20.776C66.6265 21.288 67.1598 21.544 67.8425 21.544C68.5038 21.544 69.0372 21.288 69.4425 20.776C69.9225 20.1573 70.1625 19.1707 70.1625 17.816C70.1625 16.4613 69.9225 15.4747 69.4425 14.856C69.0372 14.344 68.5038 14.088 67.8425 14.088C67.1598 14.088 66.6265 14.344 66.2425 14.856C65.7518 15.464 65.5065 16.4507 65.5065 17.816ZM64.5305 21.544C63.9118 20.616 63.6025 19.3733 63.6025 17.816C63.6025 16.2587 63.9118 15.016 64.5305 14.088C65.2878 12.9573 66.3918 12.392 67.8425 12.392C69.2825 12.392 70.3812 12.9573 71.1385 14.088C71.7572 15.016 72.0665 16.2587 72.0665 17.816C72.0665 19.3733 71.7572 20.616 71.1385 21.544C70.3812 22.6747 69.2825 23.24 67.8425 23.24C66.3918 23.24 65.2878 22.6747 64.5305 21.544ZM73.1081 21.832C73.1081 21.4907 73.2361 21.2027 73.4921 20.968C73.7481 20.7333 74.0628 20.616 74.4361 20.616C74.8628 20.616 75.2095 20.7707 75.4761 21.08C75.7535 21.3893 75.8921 21.8 75.8921 22.312C75.8921 23.3253 75.6201 24.1093 75.0761 24.664C74.5428 25.2293 73.9455 25.5547 73.2841 25.64V24.696C73.6575 24.6107 73.9828 24.4027 74.2601 24.072C74.5481 23.7413 74.6975 23.3733 74.7081 22.968C74.6015 23.0213 74.4735 23.048 74.3241 23.048C73.9721 23.048 73.6788 22.936 73.4441 22.712C73.2201 22.488 73.1081 22.1947 73.1081 21.832ZM79.159 17.816C79.159 19.16 79.4043 20.1467 79.895 20.776C80.279 21.288 80.8123 21.544 81.495 21.544C82.1563 21.544 82.6897 21.288 83.095 20.776C83.575 20.1573 83.815 19.1707 83.815 17.816C83.815 16.4613 83.575 15.4747 83.095 14.856C82.6897 14.344 82.1563 14.088 81.495 14.088C80.8123 14.088 80.279 14.344 79.895 14.856C79.4043 15.464 79.159 16.4507 79.159 17.816ZM78.183 21.544C77.5643 20.616 77.255 19.3733 77.255 17.816C77.255 16.2587 77.5643 15.016 78.183 14.088C78.9403 12.9573 80.0443 12.392 81.495 12.392C82.935 12.392 84.0337 12.9573 84.791 14.088C85.4097 15.016 85.719 16.2587 85.719 17.816C85.719 19.3733 85.4097 20.616 84.791 21.544C84.0337 22.6747 82.935 23.24 81.495 23.24C80.0443 23.24 78.9403 22.6747 78.183 21.544ZM88.9384 17.816C88.9384 19.16 89.1837 20.1467 89.6744 20.776C90.0584 21.288 90.5917 21.544 91.2744 21.544C91.9357 21.544 92.469 21.288 92.8744 20.776C93.3544 20.1573 93.5944 19.1707 93.5944 17.816C93.5944 16.4613 93.3544 15.4747 92.8744 14.856C92.469 14.344 91.9357 14.088 91.2744 14.088C90.5917 14.088 90.0584 14.344 89.6744 14.856C89.1837 15.464 88.9384 16.4507 88.9384 17.816ZM87.9624 21.544C87.3437 20.616 87.0344 19.3733 87.0344 17.816C87.0344 16.2587 87.3437 15.016 87.9624 14.088C88.7197 12.9573 89.8237 12.392 91.2744 12.392C92.7144 12.392 93.813 12.9573 94.5704 14.088C95.189 15.016 95.4984 16.2587 95.4984 17.816C95.4984 19.3733 95.189 20.616 94.5704 21.544C93.813 22.6747 92.7144 23.24 91.2744 23.24C89.8237 23.24 88.7197 22.6747 87.9624 21.544ZM98.7178 17.816C98.7178 19.16 98.9631 20.1467 99.4538 20.776C99.8378 21.288 100.371 21.544 101.054 21.544C101.715 21.544 102.248 21.288 102.654 20.776C103.134 20.1573 103.374 19.1707 103.374 17.816C103.374 16.4613 103.134 15.4747 102.654 14.856C102.248 14.344 101.715 14.088 101.054 14.088C100.371 14.088 99.8378 14.344 99.4538 14.856C98.9631 15.464 98.7178 16.4507 98.7178 17.816ZM97.7418 21.544C97.1231 20.616 96.8138 19.3733 96.8138 17.816C96.8138 16.2587 97.1231 15.016 97.7418 14.088C98.4991 12.9573 99.6031 12.392 101.054 12.392C102.494 12.392 103.592 12.9573 104.35 14.088C104.968 15.016 105.278 16.2587 105.278 17.816C105.278 19.3733 104.968 20.616 104.35 21.544C103.592 22.6747 102.494 23.24 101.054 23.24C99.6031 23.24 98.4991 22.6747 97.7418 21.544Z" fill="#C1C4CD"/>
<g filter="url(#filter1_b_0_1)">
<g filter="url(#filter2_bd_0_1)">
<path d="M-241 63H135V-24H-241V63Z" fill="white"/>
</g>
<path d="M0 6H4.28571V20H0V6ZM8 0H12V20H8V0ZM16 11.4286H20V20H16V11.4286Z" fill="#0466C8"/>
</g>
</g>
<defs>
<filter id="filter0_d_0_1" x="-252" y="-159" width="400" height="423" filterUnits="userSpaceOnUse" color-interpolation-filters="sRGB">
<feFlood flood-opacity="0" result="BackgroundImageFix"/>
<feColorMatrix in="SourceAlpha" type="matrix" values="0 0 0 0 0 0 0 0 0 0 0 0 0 0 0 0 0 0 127 0" result="hardAlpha"/>
<feMorphology radius="2" operator="dilate" in="SourceAlpha" result="effect1_dropShadow_0_1"/>
<feOffset dy="5"/>
<feGaussianBlur stdDeviation="5"/>
<feColorMatrix type="matrix" values="0 0 0 0 0 0 0 0 0 0 0 0 0 0 0 0 0 0 0.03 0"/>
<feBlend mode="normal" in2="BackgroundImageFix" result="effect1_dropShadow_0_1"/>
<feBlend mode="normal" in="SourceGraphic" in2="effect1_dropShadow_0_1" result="shape"/>
</filter>
<filter id="filter1_b_0_1" x="-341" y="-124" width="576" height="287" filterUnits="userSpaceOnUse" color-interpolation-filters="sRGB">
<feFlood flood-opacity="0" result="BackgroundImageFix"/>
<feGaussianBlur in="BackgroundImageFix" stdDeviation="50"/>
<feComposite in2="SourceAlpha" operator="in" result="effect1_backgroundBlur_0_1"/>
<feBlend mode="normal" in="SourceGraphic" in2="effect1_backgroundBlur_0_1" result="shape"/>
</filter>
<filter id="filter2_bd_0_1" x="-291" y="-74" width="476" height="187" filterUnits="userSpaceOnUse" color-interpolation-filters="sRGB">
<feFlood flood-opacity="0" result="BackgroundImageFix"/>
<feGaussianBlur in="BackgroundImageFix" stdDeviation="25"/>
<feComposite in2="SourceAlpha" operator="in" result="effect1_backgroundBlur_0_1"/>
<feColorMatrix in="SourceAlpha" type="matrix" values="0 0 0 0 0 0 0 0 0 0 0 0 0 0 0 0 0 0 127 0" result="hardAlpha"/>
<feMorphology radius="5" operator="dilate" in="SourceAlpha" result="effect2_dropShadow_0_1"/>
<feOffset dy="-5"/>
<feGaussianBlur stdDeviation="10"/>
<feColorMatrix type="matrix" values="0 0 0 0 0 0 0 0 0 0 0 0 0 0 0 0 0 0 0.04 0"/>
<feBlend mode="normal" in2="effect1_backgroundBlur_0_1" result="effect2_dropShadow_0_1"/>
<feBlend mode="normal" in="SourceGraphic" in2="effect2_dropShadow_0_1" result="shape"/>
</filter>
<clipPath id="clip0_0_1">
<rect width="375" height="818" fill="white" transform="translate(-240 -749)"/>
</clipPath>
</defs>
</svg>
