<svg width="69" height="25" viewBox="0 0 69 25" fill="none" xmlns="http://www.w3.org/2000/svg">
<path d="M0.152 18.996V13.812L9.98 0.635998H16.1V14.748H19.952V18.996H16.1V24H11.204V18.996H0.152ZM11.204 14.748V5.82L4.544 14.748H11.204ZM21.6685 23.244L22.8925 19.248C24.0925 19.92 25.4725 20.256 27.0325 20.256C29.1925 20.256 30.9205 19.68 32.2165 18.528C33.5365 17.376 34.2805 15.744 34.4485 13.632C33.9445 14.4 33.2125 15.012 32.2525 15.468C31.3165 15.924 30.2485 16.152 29.0485 16.152C26.7925 16.152 24.8845 15.432 23.3245 13.992C21.7645 12.552 20.9845 10.656 20.9845 8.304C20.9845 5.904 21.8245 3.936 23.5045 2.4C25.2085 0.863999 27.3565 0.0959988 29.9485 0.0959988C32.6365 0.0959988 34.8565 1.056 36.6085 2.976C38.3845 4.872 39.2725 7.596 39.2725 11.148C39.2725 15.396 38.2285 18.696 36.1405 21.048C34.0525 23.376 31.0285 24.54 27.0685 24.54C24.8605 24.54 23.0605 24.108 21.6685 23.244ZM32.6125 10.932C33.4045 10.212 33.8005 9.288 33.8005 8.16C33.8005 7.032 33.4045 6.108 32.6125 5.388C31.8445 4.668 30.8965 4.308 29.7685 4.308C28.6645 4.308 27.7165 4.668 26.9245 5.388C26.1565 6.108 25.7725 7.032 25.7725 8.16C25.7725 9.312 26.1565 10.248 26.9245 10.968C27.6925 11.664 28.6405 12.012 29.7685 12.012C30.8965 12.012 31.8445 11.652 32.6125 10.932ZM44.5096 6.144C44.5096 6.888 44.7376 7.5 45.1936 7.98C45.6496 8.436 46.2136 8.664 46.8856 8.664C47.5816 8.664 48.1456 8.436 48.5776 7.98C49.0336 7.5 49.2616 6.888 49.2616 6.144C49.2616 5.4 49.0336 4.8 48.5776 4.344C48.1456 3.888 47.5816 3.66 46.8856 3.66C46.2136 3.66 45.6496 3.9 45.1936 4.38C44.7376 4.836 44.5096 5.424 44.5096 6.144ZM42.6376 10.32C41.4856 9.168 40.9096 7.776 40.9096 6.144C40.9096 4.512 41.4976 3.12 42.6736 1.968C43.8496 0.815999 45.2536 0.239999 46.8856 0.239999C48.5176 0.239999 49.9216 0.815999 51.0976 1.968C52.2976 3.12 52.8976 4.512 52.8976 6.144C52.8976 7.8 52.2976 9.192 51.0976 10.32C49.9216 11.448 48.5176 12.012 46.8856 12.012C45.2296 12.012 43.8136 11.448 42.6376 10.32ZM60.2416 18.528C60.2416 19.272 60.4696 19.884 60.9256 20.364C61.3816 20.82 61.9456 21.048 62.6176 21.048C63.3136 21.048 63.8776 20.82 64.3096 20.364C64.7656 19.884 64.9936 19.272 64.9936 18.528C64.9936 17.784 64.7656 17.184 64.3096 16.728C63.8776 16.272 63.3136 16.044 62.6176 16.044C61.9456 16.044 61.3816 16.284 60.9256 16.764C60.4696 17.22 60.2416 17.808 60.2416 18.528ZM58.3696 22.704C57.2176 21.552 56.6416 20.16 56.6416 18.528C56.6416 16.896 57.2296 15.504 58.4056 14.352C59.5816 13.2 60.9856 12.624 62.6176 12.624C64.2496 12.624 65.6536 13.2 66.8296 14.352C68.0296 15.504 68.6296 16.896 68.6296 18.528C68.6296 20.184 68.0296 21.576 66.8296 22.704C65.6536 23.832 64.2496 24.396 62.6176 24.396C60.9616 24.396 59.5456 23.832 58.3696 22.704ZM48.6136 24H44.4376L60.9256 0.635998H65.1016L48.6136 24Z" fill="#0466C8"/>
</svg>
