<svg width="20" height="20" viewBox="0 0 20 20" fill="none" xmlns="http://www.w3.org/2000/svg">
<rect width="20" height="20" fill="#E5E5E5"/>
<g id="iPhone 11 Pro / X - 6" clip-path="url(#clip0_0_1)">
<rect width="375" height="818" transform="translate(-312 -749)" fill="#FCFCFC"/>
<g id="Rectangle 9" filter="url(#filter0_d_0_1)">
<rect x="-312" y="-152" width="376" height="399" rx="10" fill="#FCFEFF"/>
</g>
<g id="&#226;&#130;&#166;7,000/&#226;&#130;&#166;20,000">
<path d="M-80.8176 23V18.888H-82.0656V17.864H-80.8176V16.552H-82.0656V15.528H-80.8176V11.576H-79.1536L-77.6336 15.528H-75.7456V11.576H-74.4816V15.528H-73.2336V16.552H-74.4816V17.864H-73.2336V18.888H-74.4816V23H-76.1616L-77.6816 18.888H-79.5696V23H-80.8176ZM-79.6016 15.528H-78.9296L-79.6016 13.544H-79.6656L-79.6016 15.528ZM-79.5696 17.864H-78.0656L-78.5456 16.552H-79.6016L-79.5696 17.864ZM-76.7856 17.864H-75.7136L-75.7456 16.552H-77.2656L-76.7856 17.864ZM-75.7456 20.744H-75.6816L-75.7296 18.888H-76.4016L-75.7456 20.744ZM-65.3254 12.632V14.312C-65.5814 14.5253 -65.832 14.7493 -66.0774 14.984C-66.312 15.2187 -66.6374 15.608 -67.0534 16.152C-67.4694 16.6853 -67.832 17.2507 -68.1414 17.848C-68.4507 18.4347 -68.7494 19.192 -69.0374 20.12C-69.3147 21.0373 -69.496 21.9973 -69.5814 23H-71.5654C-71.48 21.9227 -71.2827 20.888 -70.9734 19.896C-70.664 18.8933 -70.3174 18.072 -69.9334 17.432C-69.5494 16.7813 -69.176 16.2107 -68.8134 15.72C-68.44 15.2293 -68.1254 14.872 -67.8694 14.648L-67.5014 14.312H-73.0694V12.632H-65.3254ZM-66.205 21.832C-66.205 21.4907 -66.077 21.2027 -65.821 20.968C-65.565 20.7333 -65.2503 20.616 -64.877 20.616C-64.4503 20.616 -64.1037 20.7707 -63.837 21.08C-63.5597 21.3893 -63.421 21.8 -63.421 22.312C-63.421 23.3253 -63.693 24.1093 -64.237 24.664C-64.7703 25.2293 -65.3677 25.5547 -66.029 25.64V24.696C-65.6557 24.6107 -65.3303 24.4027 -65.053 24.072C-64.765 23.7413 -64.6157 23.3733 -64.605 22.968C-64.7117 23.0213 -64.8397 23.048 -64.989 23.048C-65.341 23.048 -65.6343 22.936 -65.869 22.712C-66.093 22.488 -66.205 22.1947 -66.205 21.832ZM-60.1541 17.816C-60.1541 19.16 -59.9088 20.1467 -59.4181 20.776C-59.0341 21.288 -58.5008 21.544 -57.8181 21.544C-57.1568 21.544 -56.6235 21.288 -56.2181 20.776C-55.7381 20.1573 -55.4981 19.1707 -55.4981 17.816C-55.4981 16.4613 -55.7381 15.4747 -56.2181 14.856C-56.6235 14.344 -57.1568 14.088 -57.8181 14.088C-58.5008 14.088 -59.0341 14.344 -59.4181 14.856C-59.9088 15.464 -60.1541 16.4507 -60.1541 17.816ZM-61.1301 21.544C-61.7488 20.616 -62.0581 19.3733 -62.0581 17.816C-62.0581 16.2587 -61.7488 15.016 -61.1301 14.088C-60.3728 12.9573 -59.2688 12.392 -57.8181 12.392C-56.3781 12.392 -55.2795 12.9573 -54.5221 14.088C-53.9035 15.016 -53.5941 16.2587 -53.5941 17.816C-53.5941 19.3733 -53.9035 20.616 -54.5221 21.544C-55.2795 22.6747 -56.3781 23.24 -57.8181 23.24C-59.2688 23.24 -60.3728 22.6747 -61.1301 21.544ZM-50.3747 17.816C-50.3747 19.16 -50.1294 20.1467 -49.6387 20.776C-49.2547 21.288 -48.7214 21.544 -48.0387 21.544C-47.3774 21.544 -46.8441 21.288 -46.4387 20.776C-45.9587 20.1573 -45.7187 19.1707 -45.7187 17.816C-45.7187 16.4613 -45.9587 15.4747 -46.4387 14.856C-46.8441 14.344 -47.3774 14.088 -48.0387 14.088C-48.7214 14.088 -49.2547 14.344 -49.6387 14.856C-50.1294 15.464 -50.3747 16.4507 -50.3747 17.816ZM-51.3507 21.544C-51.9694 20.616 -52.2787 19.3733 -52.2787 17.816C-52.2787 16.2587 -51.9694 15.016 -51.3507 14.088C-50.5934 12.9573 -49.4894 12.392 -48.0387 12.392C-46.5987 12.392 -45.5001 12.9573 -44.7427 14.088C-44.1241 15.016 -43.8147 16.2587 -43.8147 17.816C-43.8147 19.3733 -44.1241 20.616 -44.7427 21.544C-45.5001 22.6747 -46.5987 23.24 -48.0387 23.24C-49.4894 23.24 -50.5934 22.6747 -51.3507 21.544ZM-40.5954 17.816C-40.5954 19.16 -40.35 20.1467 -39.8594 20.776C-39.4754 21.288 -38.942 21.544 -38.2594 21.544C-37.598 21.544 -37.0647 21.288 -36.6594 20.776C-36.1794 20.1573 -35.9394 19.1707 -35.9394 17.816C-35.9394 16.4613 -36.1794 15.4747 -36.6594 14.856C-37.0647 14.344 -37.598 14.088 -38.2594 14.088C-38.942 14.088 -39.4754 14.344 -39.8594 14.856C-40.35 15.464 -40.5954 16.4507 -40.5954 17.816ZM-41.5714 21.544C-42.19 20.616 -42.4994 19.3733 -42.4994 17.816C-42.4994 16.2587 -42.19 15.016 -41.5714 14.088C-40.814 12.9573 -39.71 12.392 -38.2594 12.392C-36.8194 12.392 -35.7207 12.9573 -34.9634 14.088C-34.3447 15.016 -34.0354 16.2587 -34.0354 17.816C-34.0354 19.3733 -34.3447 20.616 -34.9634 21.544C-35.7207 22.6747 -36.8194 23.24 -38.2594 23.24C-39.71 23.24 -40.814 22.6747 -41.5714 21.544ZM-26.6284 11.576L-32.2124 23.08H-33.9244L-28.3404 11.576H-26.6284Z" fill="#001233"/>
<path d="M-25.2995 23V18.888H-26.5475V17.864H-25.2995V16.552H-26.5475V15.528H-25.2995V11.576H-23.6355L-22.1155 15.528H-20.2275V11.576H-18.9635V15.528H-17.7155V16.552H-18.9635V17.864H-17.7155V18.888H-18.9635V23H-20.6435L-22.1635 18.888H-24.0515V23H-25.2995ZM-24.0835 15.528H-23.4115L-24.0835 13.544H-24.1475L-24.0835 15.528ZM-24.0515 17.864H-22.5475L-23.0275 16.552H-24.0835L-24.0515 17.864ZM-21.2675 17.864H-20.1955L-20.2275 16.552H-21.7475L-21.2675 17.864ZM-20.2275 20.744H-20.1635L-20.2115 18.888H-20.8835L-20.2275 20.744ZM-15.1032 16.52L-16.9592 16.392C-16.9912 16.104 -17.0072 15.9067 -17.0072 15.8C-17.0072 14.8613 -16.6766 14.0613 -16.0152 13.4C-15.3432 12.728 -14.4419 12.392 -13.3112 12.392C-12.2019 12.392 -11.3166 12.7067 -10.6552 13.336C-9.99391 13.9653 -9.66325 14.7387 -9.66325 15.656C-9.66325 16.9787 -10.3299 18.0507 -11.6632 18.872L-13.6792 20.12C-14.2659 20.472 -14.6179 20.8667 -14.7352 21.304H-9.59925V23H-17.1032C-17.0819 22.072 -16.8846 21.2613 -16.5112 20.568C-16.1379 19.8747 -15.5139 19.256 -14.6392 18.712L-12.9272 17.64C-12.0419 17.0853 -11.5992 16.4347 -11.5992 15.688C-11.5992 15.2293 -11.7539 14.8453 -12.0632 14.536C-12.3619 14.2267 -12.7886 14.072 -13.3432 14.072C-13.9299 14.072 -14.3779 14.2533 -14.6872 14.616C-14.9966 14.968 -15.1512 15.4267 -15.1512 15.992L-15.1032 16.52ZM-6.4935 17.816C-6.4935 19.16 -6.24817 20.1467 -5.7575 20.776C-5.3735 21.288 -4.84017 21.544 -4.1575 21.544C-3.49617 21.544 -2.96283 21.288 -2.5575 20.776C-2.0775 20.1573 -1.8375 19.1707 -1.8375 17.816C-1.8375 16.4613 -2.0775 15.4747 -2.5575 14.856C-2.96283 14.344 -3.49617 14.088 -4.1575 14.088C-4.84017 14.088 -5.3735 14.344 -5.7575 14.856C-6.24817 15.464 -6.4935 16.4507 -6.4935 17.816ZM-7.4695 21.544C-8.08817 20.616 -8.3975 19.3733 -8.3975 17.816C-8.3975 16.2587 -8.08817 15.016 -7.4695 14.088C-6.71217 12.9573 -5.60817 12.392 -4.1575 12.392C-2.7175 12.392 -1.61883 12.9573 -0.8615 14.088C-0.242833 15.016 0.0664997 16.2587 0.0664997 17.816C0.0664997 19.3733 -0.242833 20.616 -0.8615 21.544C-1.61883 22.6747 -2.7175 23.24 -4.1575 23.24C-5.60817 23.24 -6.71217 22.6747 -7.4695 21.544ZM1.10812 21.832C1.10812 21.4907 1.23612 21.2027 1.49212 20.968C1.74812 20.7333 2.06279 20.616 2.43612 20.616C2.86279 20.616 3.20946 20.7707 3.47612 21.08C3.75346 21.3893 3.89212 21.8 3.89212 22.312C3.89212 23.3253 3.62012 24.1093 3.07612 24.664C2.54279 25.2293 1.94546 25.5547 1.28412 25.64V24.696C1.65746 24.6107 1.98279 24.4027 2.26012 24.072C2.54812 23.7413 2.69746 23.3733 2.70812 22.968C2.60146 23.0213 2.47346 23.048 2.32412 23.048C1.97212 23.048 1.67879 22.936 1.44412 22.712C1.22012 22.488 1.10812 22.1947 1.10812 21.832ZM7.159 17.816C7.159 19.16 7.40434 20.1467 7.895 20.776C8.279 21.288 8.81234 21.544 9.495 21.544C10.1563 21.544 10.6897 21.288 11.095 20.776C11.575 20.1573 11.815 19.1707 11.815 17.816C11.815 16.4613 11.575 15.4747 11.095 14.856C10.6897 14.344 10.1563 14.088 9.495 14.088C8.81234 14.088 8.279 14.344 7.895 14.856C7.40434 15.464 7.159 16.4507 7.159 17.816ZM6.183 21.544C5.56434 20.616 5.255 19.3733 5.255 17.816C5.255 16.2587 5.56434 15.016 6.183 14.088C6.94034 12.9573 8.04434 12.392 9.495 12.392C10.935 12.392 12.0337 12.9573 12.791 14.088C13.4097 15.016 13.719 16.2587 13.719 17.816C13.719 19.3733 13.4097 20.616 12.791 21.544C12.0337 22.6747 10.935 23.24 9.495 23.24C8.04434 23.24 6.94034 22.6747 6.183 21.544ZM16.9384 17.816C16.9384 19.16 17.1837 20.1467 17.6744 20.776C18.0584 21.288 18.5917 21.544 19.2744 21.544C19.9357 21.544 20.469 21.288 20.8744 20.776C21.3544 20.1573 21.5944 19.1707 21.5944 17.816C21.5944 16.4613 21.3544 15.4747 20.8744 14.856C20.469 14.344 19.9357 14.088 19.2744 14.088C18.5917 14.088 18.0584 14.344 17.6744 14.856C17.1837 15.464 16.9384 16.4507 16.9384 17.816ZM15.9624 21.544C15.3437 20.616 15.0344 19.3733 15.0344 17.816C15.0344 16.2587 15.3437 15.016 15.9624 14.088C16.7197 12.9573 17.8237 12.392 19.2744 12.392C20.7144 12.392 21.813 12.9573 22.5704 14.088C23.189 15.016 23.4984 16.2587 23.4984 17.816C23.4984 19.3733 23.189 20.616 22.5704 21.544C21.813 22.6747 20.7144 23.24 19.2744 23.24C17.8237 23.24 16.7197 22.6747 15.9624 21.544ZM26.7178 17.816C26.7178 19.16 26.9631 20.1467 27.4538 20.776C27.8378 21.288 28.3711 21.544 29.0538 21.544C29.7151 21.544 30.2484 21.288 30.6538 20.776C31.1338 20.1573 31.3738 19.1707 31.3738 17.816C31.3738 16.4613 31.1338 15.4747 30.6538 14.856C30.2484 14.344 29.7151 14.088 29.0538 14.088C28.3711 14.088 27.8378 14.344 27.4538 14.856C26.9631 15.464 26.7178 16.4507 26.7178 17.816ZM25.7418 21.544C25.1231 20.616 24.8138 19.3733 24.8138 17.816C24.8138 16.2587 25.1231 15.016 25.7418 14.088C26.4991 12.9573 27.6031 12.392 29.0538 12.392C30.4938 12.392 31.5924 12.9573 32.3498 14.088C32.9684 15.016 33.2778 16.2587 33.2778 17.816C33.2778 19.3733 32.9684 20.616 32.3498 21.544C31.5924 22.6747 30.4938 23.24 29.0538 23.24C27.6031 23.24 26.4991 22.6747 25.7418 21.544Z" fill="#C1C4CD"/>
</g>
<g id="Menu" filter="url(#filter1_b_0_1)">
<g id="Subtract" filter="url(#filter2_bd_0_1)">
<path d="M-313 63H63V-24H-313V63Z" fill="white"/>
</g>
<g id="Group 11">
<g id="Group 10" opacity="0.6">
<path id="Vector" d="M10 2.5C11.375 2.5 12.5 3.625 12.5 5C12.5 6.375 11.375 7.5 10 7.5C8.625 7.5 7.5 6.375 7.5 5C7.5 3.625 8.625 2.5 10 2.5ZM10 15C13.375 15 17.25 16.6125 17.5 17.5H2.5C2.7875 16.6 6.6375 15 10 15ZM10 0C7.2375 0 5 2.2375 5 5C5 7.7625 7.2375 10 10 10C12.7625 10 15 7.7625 15 5C15 2.2375 12.7625 0 10 0ZM10 12.5C6.6625 12.5 0 14.175 0 17.5V20H20V17.5C20 14.175 13.3375 12.5 10 12.5Z" fill="#707480"/>
</g>
</g>
</g>
</g>
<defs>
<filter id="filter0_d_0_1" x="-324" y="-159" width="400" height="423" filterUnits="userSpaceOnUse" color-interpolation-filters="sRGB">
<feFlood flood-opacity="0" result="BackgroundImageFix"/>
<feColorMatrix in="SourceAlpha" type="matrix" values="0 0 0 0 0 0 0 0 0 0 0 0 0 0 0 0 0 0 127 0" result="hardAlpha"/>
<feMorphology radius="2" operator="dilate" in="SourceAlpha" result="effect1_dropShadow_0_1"/>
<feOffset dy="5"/>
<feGaussianBlur stdDeviation="5"/>
<feColorMatrix type="matrix" values="0 0 0 0 0 0 0 0 0 0 0 0 0 0 0 0 0 0 0.03 0"/>
<feBlend mode="normal" in2="BackgroundImageFix" result="effect1_dropShadow_0_1"/>
<feBlend mode="normal" in="SourceGraphic" in2="effect1_dropShadow_0_1" result="shape"/>
</filter>
<filter id="filter1_b_0_1" x="-413" y="-124" width="576" height="287" filterUnits="userSpaceOnUse" color-interpolation-filters="sRGB">
<feFlood flood-opacity="0" result="BackgroundImageFix"/>
<feGaussianBlur in="BackgroundImageFix" stdDeviation="50"/>
<feComposite in2="SourceAlpha" operator="in" result="effect1_backgroundBlur_0_1"/>
<feBlend mode="normal" in="SourceGraphic" in2="effect1_backgroundBlur_0_1" result="shape"/>
</filter>
<filter id="filter2_bd_0_1" x="-363" y="-74" width="476" height="187" filterUnits="userSpaceOnUse" color-interpolation-filters="sRGB">
<feFlood flood-opacity="0" result="BackgroundImageFix"/>
<feGaussianBlur in="BackgroundImageFix" stdDeviation="25"/>
<feComposite in2="SourceAlpha" operator="in" result="effect1_backgroundBlur_0_1"/>
<feColorMatrix in="SourceAlpha" type="matrix" values="0 0 0 0 0 0 0 0 0 0 0 0 0 0 0 0 0 0 127 0" result="hardAlpha"/>
<feMorphology radius="5" operator="dilate" in="SourceAlpha" result="effect2_dropShadow_0_1"/>
<feOffset dy="-5"/>
<feGaussianBlur stdDeviation="10"/>
<feColorMatrix type="matrix" values="0 0 0 0 0 0 0 0 0 0 0 0 0 0 0 0 0 0 0.04 0"/>
<feBlend mode="normal" in2="effect1_backgroundBlur_0_1" result="effect2_dropShadow_0_1"/>
<feBlend mode="normal" in="SourceGraphic" in2="effect2_dropShadow_0_1" result="shape"/>
</filter>
<clipPath id="clip0_0_1">
<rect width="375" height="818" fill="white" transform="translate(-312 -749)"/>
</clipPath>
</defs>
</svg>
